<svg width="191" height="197" viewBox="0 0 191 197" fill="none" xmlns="http://www.w3.org/2000/svg">
<ellipse cx="106.081" cy="42.2022" rx="13.3391" ry="39.1658" fill="#FAD71F"/>
<ellipse cx="134.381" cy="42.2023" rx="13.3391" ry="39.1658" transform="rotate(40 134.381 42.2023)" fill="#FAD71F"/>
<ellipse cx="149.138" cy="67.2483" rx="13.3391" ry="39.1658" transform="rotate(80 149.138 67.2483)" fill="#FAD71F"/>
<ellipse cx="149.347" cy="93.5381" rx="13.3391" ry="39.1658" transform="rotate(104.889 149.347 93.5381)" fill="#FAD71F"/>
<ellipse cx="74.0008" cy="96.0005" rx="13.3391" ry="39.1658" transform="rotate(-117.784 74.0008 96.0005)" fill="#FAD71F"/>
<ellipse cx="60.8085" cy="70.9646" rx="13.3391" ry="39.1658" transform="rotate(-77.7842 60.8085 70.9646)" fill="#FAD71F"/>
<ellipse cx="76.0894" cy="46.2331" rx="13.3391" ry="39.1658" transform="rotate(-37.7842 76.0894 46.2331)" fill="#FAD71F"/>
<ellipse cx="133.082" cy="117.167" rx="13.3391" ry="39.1658" transform="rotate(146.532 133.082 117.167)" fill="#FAD71F"/>
<ellipse cx="109.476" cy="132.773" rx="13.3391" ry="39.1658" transform="rotate(-173.468 109.476 132.773)" fill="#FAD71F"/>
<ellipse cx="83.3538" cy="120.019" rx="13.3391" ry="39.1658" transform="rotate(-133.468 83.3538 120.019)" fill="#FAD71F"/>
<circle cx="105.799" cy="81.368" r="31.2191" fill="#A3662E"/>
</svg>
